<svg xmlns="http://www.w3.org/2000/svg" viewBox="0 0 200 200"><path d="m32 116 20 40 20-32 28 72 28-72 20 32 20-40z" style="fill:#15aadc"/><path d="M35.6 52.8a31 31 0 0 1 6 .8v-.8a23.31 23.31 0 0 1 23.6-23.2A23.77 23.77 0 0 1 80 34.8 37.38 37.38 0 0 1 114.8 12a37.93 37.93 0 0 1 38 36.4 31.2 31.2 0 0 1 8.8-1.6 26.4 26.4 0 0 1 0 52.8h-126A23.06 23.06 0 0 1 12 76.4a23.64 23.64 0 0 1 23.6-23.6" style="fill:#e6e6e6"/><path d="M114.8 12a37.93 37.93 0 0 1 38 36.4 31.2 31.2 0 0 1 8.8-1.6 26.4 26.4 0 0 1 0 52.8h-126A23.06 23.06 0 0 1 12 76.4a23.64 23.64 0 0 1 23.6-23.6 31 31 0 0 1 6 .8v-.8a23.31 23.31 0 0 1 23.6-23.2A23.77 23.77 0 0 1 80 34.8 37.38 37.38 0 0 1 114.8 12m0-8a46.8 46.8 0 0 0-38 19.6 30.6 30.6 0 0 0-12-2.4 31.79 31.79 0 0 0-30.4 23.2A32.06 32.06 0 0 0 4 76.4 31.41 31.41 0 0 0 35.6 108h126a34.4 34.4 0 0 0 0-68.8h-2A45.91 45.91 0 0 0 114.8 4" style="fill:#a3a3a3"/></svg>