<svg xmlns="http://www.w3.org/2000/svg" id="Layer_1" data-name="Layer 1" viewBox="0 0 200 200"><defs><style>.cls-1{fill:#008fbf}</style></defs><circle cx="100" cy="100" r="4" class="cls-1"/><path d="M114.8 4a46.8 46.8 0 0 0-38 19.6 30.6 30.6 0 0 0-12-2.4 31.79 31.79 0 0 0-30.4 23.2A32.06 32.06 0 0 0 4 76.4 31.41 31.41 0 0 0 35.6 108h126a34.4 34.4 0 0 0 0-68.8h-2A45.91 45.91 0 0 0 114.8 4" style="fill:#a3a3a3"/><path d="M35.6 52.8a31 31 0 0 1 6 .8v-.8a23.31 23.31 0 0 1 23.6-23.2A23.77 23.77 0 0 1 80 34.8 37.38 37.38 0 0 1 114.8 12a37.93 37.93 0 0 1 38 36.4 31.2 31.2 0 0 1 8.8-1.6 26.4 26.4 0 0 1 0 52.8h-126A23.06 23.06 0 0 1 12 76.4a23.64 23.64 0 0 1 23.6-23.6" style="fill:#e6e6e6"/><circle cx="88" cy="124" r="8" class="cls-1"/><circle cx="52" cy="180" r="8" class="cls-1"/><path d="m174.2 171.6-8.4-4.8 6-1.6a3.54 3.54 0 0 0-2-6.8l-12.8 3.2-4.8-2.8a8.8 8.8 0 0 0 .4-3.2 6.8 6.8 0 0 0-.4-2.8l4.8-2.8 12.8 3.6h.8a3.84 3.84 0 0 0 3.6-2.8c.4-2-.4-4-2.4-4.4l-6-1.6 8.4-4.8a3.5 3.5 0 1 0-3.6-6l-8.4 4.8 1.6-6.4a3.69 3.69 0 0 0-7.2-1.6l-3.2 13.2-4.4 2.4a13.8 13.8 0 0 0-4.8-2.8v-5.2l9.6-9.2c1.6-1.2 1.6-3.6 0-5.2-1.2-1.6-3.6-1.6-5.2 0l-4.8 4.4v-10a3.6 3.6 0 0 0-7.2 0v10l-4.4-4.4a3.68 3.68 0 1 0-5.2 5.2l9.6 9.2v5.6a14.1 14.1 0 0 0-5.2 3.2l-4-2.4-3.2-13.2a3.69 3.69 0 0 0-7.2 1.6l1.6 6.4-8.4-4.8c-1.6-.8-4-.4-4.8 1.2s-.4 4 1.2 4.8l8.4 4.8-6 2a3.2 3.2 0 0 0-2.4 4.4 3.84 3.84 0 0 0 3.6 2.8h.8l12.8-3.6 4.4 2.8c0 .8-.4 1.2-.4 2a6.8 6.8 0 0 0 .4 2.8l-4.8 2.8-12.8-3.6c-2-.4-4 .4-4.4 2.4s.4 4 2.4 4.4l6 1.6-8.4 4.8a3.35 3.35 0 0 0-1.2 4.8 3.64 3.64 0 0 0 3.2 1.6c.8 0 1.2 0 1.6-.4l8.4-4.8-1.6 6.4a3.68 3.68 0 0 0 2.8 4.4h.8a3.84 3.84 0 0 0 3.6-2.8l3.2-13.2 4.8-2.8a13.8 13.8 0 0 0 4.8 2.8v5.2l-9.6 9.2c-1.6 1.2-1.6 3.6 0 5.2a3.46 3.46 0 0 0 2.4 1.2 2.85 2.85 0 0 0 2.4-1.2l4.8-4.4v10a3.6 3.6 0 0 0 7.2 0v-10l4.8 4.4a3.46 3.46 0 0 0 2.4 1.2 2.85 2.85 0 0 0 2.4-1.2 4.21 4.21 0 0 0 0-5.2l-9.6-9.2v-5.2a8.3 8.3 0 0 0 4-2.4l5.2 2.8 3.2 13.2a3.84 3.84 0 0 0 3.6 2.8h.8a3.68 3.68 0 0 0 2.8-4.4l-1.6-6.4 8.4 4.8a2.4 2.4 0 0 0 1.6.4 4.94 4.94 0 0 0 3.2-1.6 2.83 2.83 0 0 0-.8-4.8m-33.6-11.2a5.2 5.2 0 1 1 5.2-5.2 5 5 0 0 1-5.2 5.2M62 156l-2-4a10.8 10.8 0 0 0 2.8-3.2 12 12 0 0 0 1.6-4h4.4a4 4 0 0 0 0-8h-4.4c-.4-2.8-2-5.2-4-7.6l2.4-4a4 4 0 0 0-6.8-4.4l-2.4 4a15 15 0 0 0-8.4-.4l-2-4c-1.2-2-3.6-2.8-5.2-1.6-2 1.2-2.8 3.6-1.6 5.2l2 4a10.8 10.8 0 0 0-2.8 3.2 12 12 0 0 0-1.6 4h-4.4a3.78 3.78 0 0 0-4 4 4.2 4.2 0 0 0 2 3.6c.4.4 1.2.4 2 .8H34c.4 2.8 2 5.2 4 7.6l-2.4 4a4 4 0 0 0 6.8 4.4l2.4-4a15 15 0 0 0 8.4.4l2 4a5.5 5.5 0 0 0 1.2 1.6 3.63 3.63 0 0 0 4 0A4 4 0 0 0 62 156m-17.2-8.8a7.49 7.49 0 0 1-2.4-10.8 8.1 8.1 0 0 1 13.6 8.8c-2.8 3.2-7.6 4.4-11.2 2" class="cls-1"/><circle cx="86" cy="164" r="4" class="cls-1"/></svg>