<svg xmlns="http://www.w3.org/2000/svg" viewBox="0 0 200 200"><path d="M185.36 34.45a44.7 44.7 0 0 1 11.47 1.49C169.52 20 109.83 10.83 64.3 44.3 48.67 55.42 40 67.39 35.94 84c-.14.56-.27 1.14-.39 1.71-.09.42-.19.84-.27 1.26a65.87 65.87 0 0 0 4.27 40c7.8 17.6-4 37.93-23.24 38.64h-1.66a44.7 44.7 0 0 1-11.47-1.49c27.31 15.94 76 26.61 132.53-8.36A66.1 66.1 0 0 0 164.06 116c.14-.56.27-1.14.39-1.71.09-.42.19-.84.27-1.26a65.87 65.87 0 0 0-4.27-40c-7.8-17.6 4-37.93 23.24-38.64q.83.06 1.67.06M100 126.91a26.67 26.67 0 1 1 26.2-20.19 27.09 27.09 0 0 1-26.2 20.19" style="fill:#8a8a8a"/></svg>