<svg xmlns="http://www.w3.org/2000/svg" width="200" height="200" viewBox="0 0 200 200"><defs><style>.cls-1{fill:#bdbdbd}</style></defs><path d="M26.93 76h4.38A39.3 39.3 0 0 1 38 68H27a15 15 0 1 1 3.76-29.57v-.49a15 15 0 0 1 24.32-11.46 24.3 24.3 0 0 1 46.5 8.71 16.9 16.9 0 0 1 5.62-1 16.66 16.66 0 0 1 12.75 6.05 54.6 54.6 0 0 1 10.42 2 24.84 24.84 0 0 0-22.3-16.06 32.36 32.36 0 0 0-55.95-10.12 23 23 0 0 0-28.07 14.05A23 23 0 0 0 26.93 76m114.4 56a24.18 24.18 0 0 1 24.24 23.19A16.87 16.87 0 1 1 171.2 188H90.93a15 15 0 1 1 3.76-29.57v-.49a15 15 0 0 1 24.41-11.45A24.27 24.27 0 0 1 141.33 132m0-8a32.34 32.34 0 0 0-25.21 12.06 23 23 0 0 0-28.07 14.05A23 23 0 0 0 90.93 196h80.27a24.89 24.89 0 0 0 .86-49.76A32.12 32.12 0 0 0 141.33 124" class="cls-1"/><path d="M82.49 143.11a31 31 0 0 1 30.78-15.78 40.39 40.39 0 0 1 64.28 11.19 26.48 26.48 0 0 0-24.78-46.08 38.18 38.18 0 0 0-73.08-13.68 23.5 23.5 0 0 0-38.36 18v.77A23.6 23.6 0 1 0 35.47 144h44.65c.79-.3 1.54-.66 2.37-.89M26.93 68H38a39.46 39.46 0 0 1 35.84-9.49A54.27 54.27 0 0 1 114.67 40c1.78 0 3.54.11 5.28.28a16.66 16.66 0 0 0-12.75-6.05 16.9 16.9 0 0 0-5.62 1 24.3 24.3 0 0 0-46.5-8.71 15 15 0 0 0-24.41 11.41v.49A15 15 0 1 0 26.93 68" style="fill:#f2f2f2"/><path d="M80.12 144H35.47a23.62 23.62 0 1 1 5.91-46.47v-.77a23.5 23.5 0 0 1 38.36-18 38.18 38.18 0 0 1 73.07 13.68 26.49 26.49 0 0 1 24.78 46.08c.06.12.14.23.2.35a32.6 32.6 0 0 1 8.29 2.87 34.54 34.54 0 0 0-24.48-58.81q-1.05 0-2.1.06a46.26 46.26 0 0 0-82.8-15.2 31.53 31.53 0 0 0-42.33 21 31.63 31.63 0 0 0 1.1 63.21h32.8a30.8 30.8 0 0 1 11.85-8" class="cls-1"/></svg>