<svg xmlns="http://www.w3.org/2000/svg" width="200" height="200"><defs><style>.cls-2{fill:#e6e6e6}.cls-3{fill:#a3a3a3}</style></defs><path d="M178.55 92.07a68.4 68.4 0 0 1-68.63-68.63 63.3 63.3 0 0 1 2.78-19c-29 7.93-50.38 33.32-51.57 64.26 10.31 1.55 19.43 6.3 25.78 14.24h3.17A34 34 0 0 1 123 108.33a44.9 44.9 0 0 1 22.61 23.4 37.7 37.7 0 0 1 9.52 2.78 69.11 69.11 0 0 0 40.47-44.82 59 59 0 0 1-17.05 2.38" style="fill:#8ed1e9"/><path d="M42.88 151.17a20 20 0 0 1 4.76.79v-.79a18.46 18.46 0 0 1 18.25-18.25 19.2 19.2 0 0 1 11.5 4 29.83 29.83 0 0 1 57.12 10.71 18.5 18.5 0 0 1 6.74-1.19 20.63 20.63 0 1 1 0 41.26H42.88a18.25 18.25 0 0 1 0-36.5Z" class="cls-2"/><path d="M104.76 119.44A30 30 0 0 1 134.51 148a18.5 18.5 0 0 1 6.74-1.19 20.63 20.63 0 0 1 0 41.26H42.88a18.25 18.25 0 1 1 0-36.5 20 20 0 0 1 4.76.79v-.79a18.46 18.46 0 0 1 18.25-18.25 19.2 19.2 0 0 1 11.5 4 30.29 30.29 0 0 1 27.37-17.85m0-7.93a37.58 37.58 0 0 0-30.15 15.07 31 31 0 0 0-8.73-1.61 26.08 26.08 0 0 0-25 18.25 26.22 26.22 0 0 0 2 52.36h98.38a28.56 28.56 0 0 0 0-57.12h-.4a37.6 37.6 0 0 0-36.1-27Z" class="cls-3"/><path d="M20.26 145.22a31.3 31.3 0 0 1 11.5-7.14h-5.55a13.88 13.88 0 0 1 0-27.77h2.39c0-15.07 12.3-27.37 27-27.37a26.65 26.65 0 0 1 25 17.45 19.66 19.66 0 0 1 24.2 4.36 43.2 43.2 0 0 1 10.27 1.25 27.25 27.25 0 0 0-25-15.87 30.6 30.6 0 0 0-6 .79A34.84 34.84 0 0 0 21 103.22c-9.46 2.33-17 11.06-17 21.38a22.92 22.92 0 0 0 16.26 20.62" class="cls-3"/><path d="M26.21 138.08h5.55c1.19-.4 2.78-.79 4.36-1.19a33.4 33.4 0 0 1 30.15-19 30 30 0 0 1 6 .4A44.37 44.37 0 0 1 105.16 104h.4a19.77 19.77 0 0 0-14.68-6.74 18.85 18.85 0 0 0-9.52 2.38 26.83 26.83 0 0 0-52 9.92h-3.15a14.06 14.06 0 0 0-13.88 13.84c0 8.34 5.95 14.68 13.88 14.68" class="cls-2"/><path d="M178.55 92.07a68.4 68.4 0 0 1-68.63-68.63 63.3 63.3 0 0 1 2.78-19c-29 7.93-50.38 33.32-51.57 64.26a29.1 29.1 0 0 1 7.93 2 61.49 61.49 0 0 1 33.32-53.55c0 2-.4 4.36-.4 6.74 0 42 34.51 76.17 76.56 76.17h4.76a61.2 61.2 0 0 1-38.08 29.75 6.7 6.7 0 0 1 .79 2 37.7 37.7 0 0 1 9.52 2.78A69.11 69.11 0 0 0 196 89.69a64 64 0 0 1-17.45 2.38" style="fill:#008fbf"/></svg>