<svg xmlns="http://www.w3.org/2000/svg" width="200" height="200"><defs><style>.cls-1{fill:#e6e6e6}.cls-2{fill:#a3a3a3}</style></defs><path d="M45.65 146.81a23.2 23.2 0 0 1 5.16.79v-.79A20 20 0 0 1 71 127a20.5 20.5 0 0 1 12.69 4.36 31.92 31.92 0 0 1 29.75-19.44c17.45 0 32.13 13.88 32.53 31.34a23.1 23.1 0 0 1 7.54-1.19 22.61 22.61 0 1 1 0 45.22H45.65a20.23 20.23 0 0 1 0-40.46Z" class="cls-1"/><path d="M113.09 111.9c17.45 0 32.13 13.88 32.53 31.34a23.1 23.1 0 0 1 7.54-1.19 22.61 22.61 0 0 1 0 45.22H45.26a20.23 20.23 0 1 1 0-40.46 23.2 23.2 0 0 1 5.16.79v-.79A20 20 0 0 1 70.64 127a20.5 20.5 0 0 1 12.69 4.36 32.75 32.75 0 0 1 29.75-19.44m0-7.93a41 41 0 0 0-32.93 16.66 27.4 27.4 0 0 0-9.9-1.65 28.22 28.22 0 0 0-27 19.83C29 139.67 17.49 152 17.49 167a28.27 28.27 0 0 0 28.17 28.17h107.9a30.55 30.55 0 1 0 0-61.09h-.79A40.94 40.94 0 0 0 113.09 104Z" class="cls-2"/><path d="m195.6 70.64-46.81-4L159.11 23l-40.47 22.65L100.4 4.79 81.75 45.65 41.69 23l9.52 40.5c1.59 0 2.78-.4 4.36-.4a59 59 0 0 1 8.33.79 52.2 52.2 0 0 1 36.89-15.47A51.47 51.47 0 0 1 152.36 100a73.7 73.7 0 0 1-1.59 13.09 55 55 0 0 1 7.93 13.09 36 36 0 0 1 14.68 5.16l22.61-2L160.3 100Z" style="fill:#f83"/><path d="M87.31 78.18h3.17A34.81 34.81 0 0 1 121 96.83a49.8 49.8 0 0 1 23 9.92 34 34 0 0 0 .4-6.35 43.63 43.63 0 0 0-71.8-33.32 42.4 42.4 0 0 1 14.71 11.1" style="fill:#ffb92f"/><path d="M21.06 140.46a35.5 35.5 0 0 1 12.3-7.54h-7.54a13.88 13.88 0 0 1 0-27.77h2.38c0-15.07 12.3-27.37 27-27.37a26.65 26.65 0 0 1 25 17.45 19.9 19.9 0 0 1 9.52-2.38 20.87 20.87 0 0 1 12.69 4.76 40 40 0 0 1 9.92-1.19 27.08 27.08 0 0 0-22.21-11.5 30.6 30.6 0 0 0-6 .79A34.84 34.84 0 0 0 21.06 98C11.54 100.4 4 109.12 4 119.44c0 9.92 7.54 18.64 17.06 21.02" class="cls-2"/><path d="M25.82 132.93h7.54c1.59-.4 2.78-.79 4.36-1.19a36.54 36.54 0 0 1 32.53-20.63 44 44 0 0 1 7.14.79 47.9 47.9 0 0 1 25.39-14.28 20.87 20.87 0 0 0-12.69-4.76 18.85 18.85 0 0 0-9.52 2.38 26.83 26.83 0 0 0-52 9.92h-2.75a13.88 13.88 0 0 0 0 27.77" class="cls-1"/></svg>