<svg xmlns="http://www.w3.org/2000/svg" viewBox="0 0 200 200"><defs><style>.cls-1{fill:#15aadc}</style></defs><path d="M41.78 188.31a2.54 2.54 0 0 1-1.69-.42 3.73 3.73 0 0 1-1.69-5.49l21.13-42.25a4.06 4.06 0 1 1 7.18 3.8L45.58 186.2c-.84.8-2.11 2.11-3.8 2.11m-33.78 0a2.54 2.54 0 0 1-1.69-.42 3.73 3.73 0 0 1-1.69-5.49l21.13-42.25a3.73 3.73 0 0 1 5.49-1.69 3.73 3.73 0 0 1 1.69 5.49L11.78 186.2c-.85.8-2.11 2.11-3.78 2.11m0-33.8a2.54 2.54 0 0 1-1.69-.42 3.73 3.73 0 0 1-1.69-5.49l16.9-33.8a3.73 3.73 0 0 1 5.48-1.7 3.73 3.73 0 0 1 1.69 5.49l-16.9 33.8c-.86.85-2.12 2.12-3.79 2.12m45.61-37.19L38 148.17c-.85 2.11 0 4.65 1.69 5.49a2.54 2.54 0 0 0 1.69.42 4.06 4.06 0 0 0 3.8-2.54l16.9-33.8c0-.42 0-.42.42-.85h-8.89Z" class="cls-1"/><path d="M187.55 110.56h-27.46l12.67-27.88h-48.59l-23.24 50.7h27.47l-23.24 54.93z" style="fill:#ffb92f"/><path d="m116.57 78.87 2.11-5.07h67.18l-5.49 11.83-5.07 11a24.87 24.87 0 0 0 12.25-21.13 24.35 24.35 0 0 0-24.08-24.08 24.6 24.6 0 0 0-8 1.27c-.85-17.75-16.06-32.53-34.65-32.53a35 35 0 0 0-32.11 20.7 21.83 21.83 0 0 0-13.55-4.66c-11.83 0-21.55 9.72-21.55 21.13v.85a21.4 21.4 0 0 0-5.49-.85 21.55 21.55 0 0 0 0 43.1h58.31Z" style="fill:#e6e6e6"/><path d="m87.41 117.32-15.63 30.85c-.85 2.11 0 4.65 1.69 5.49a2.54 2.54 0 0 0 1.69.42 4.06 4.06 0 0 0 3.8-2.54l16.9-33.8c0-.42 0-.42.42-.85h-8.87Zm13.52 24.51h-8.87l-20.28 40.56c-.85 2.11 0 4.65 1.69 5.49a2.54 2.54 0 0 0 1.69.42 4.06 4.06 0 0 0 3.8-2.54l21.13-42.25a1.69 1.69 0 0 0 .84-1.68" class="cls-1"/><path d="M106.85 100.42H48.54a21.55 21.55 0 0 1 0-43.1 24.7 24.7 0 0 1 5.49.85v-.85A21.28 21.28 0 0 1 75.58 36.2a21.83 21.83 0 0 1 13.52 4.65 34 34 0 0 1 31.69-20.7c18.59 0 34.22 14.79 34.65 33.38a24.6 24.6 0 0 1 8-1.27 24.35 24.35 0 0 1 24.08 24.08 24.87 24.87 0 0 1-12.22 21.12l-2.11 4.65h10.14a32.54 32.54 0 0 0-19.86-58.31h-.85a43.39 43.39 0 0 0-76.9-14.37 29.2 29.2 0 0 0-10.56-1.69 30.05 30.05 0 0 0-28.73 21.13 29.73 29.73 0 0 0-27.89 30 30.11 30.11 0 0 0 30 30H103Z" style="fill:#a3a3a3"/></svg>