<svg xmlns="http://www.w3.org/2000/svg" width="200" height="200"><path d="M171.31 128.34c-53.94 0-97.83-43.89-97.83-97.37A106.6 106.6 0 0 1 77.14 4 97.67 97.67 0 0 0 4 98.63C4 152.11 47.89 196 101.83 196A97.78 97.78 0 0 0 196 125.14a87 87 0 0 1-24.69 3.2" style="fill:#8ed1e9"/><path d="M65.26 17.71a121 121 0 0 0-.91 12.8c0 59 48 106.51 107 106.51a81 81 0 0 0 10.51-.46 88.6 88.6 0 0 1-80 50.29c-48.91 0-88.69-39.77-88.69-88.23a88.56 88.56 0 0 1 52.09-80.91M77.14 4A97.67 97.67 0 0 0 4 98.63C4 152.11 47.89 196 101.83 196A97.78 97.78 0 0 0 196 125.14a107.3 107.3 0 0 1-24.69 3.2c-53.94 0-97.83-43.89-97.83-97.37A103.8 103.8 0 0 1 77.14 4" style="fill:#008fbf"/></svg>