<svg xmlns="http://www.w3.org/2000/svg" viewBox="0 0 200 200"><defs><style>.cls-1{fill:#a3a3a3}.cls-3{fill:#15aadc}</style></defs><path d="M114.8 4a46.8 46.8 0 0 0-38 19.6 30.6 30.6 0 0 0-12-2.4 31.79 31.79 0 0 0-30.4 23.2A32.06 32.06 0 0 0 4 76.4 31.41 31.41 0 0 0 35.6 108h126a34.4 34.4 0 0 0 0-68.8h-2A45.91 45.91 0 0 0 114.8 4" class="cls-1"/><path d="M35.6 52.8a31 31 0 0 1 6 .8v-.8a23.31 23.31 0 0 1 23.6-23.2A23.77 23.77 0 0 1 80 34.8 37.38 37.38 0 0 1 114.8 12a37.93 37.93 0 0 1 38 36.4 31.2 31.2 0 0 1 8.8-1.6 26.4 26.4 0 0 1 0 52.8h-126A23.06 23.06 0 0 1 12 76.4a23.64 23.64 0 0 1 23.6-23.6" style="fill:#e6e6e6"/><circle cx="100" cy="149.4" r="7.1" class="cls-3"/><path d="M100 131.73a3.55 3.55 0 0 0 3.55-3.55v-10.63a3.55 3.55 0 0 0-7.09 0v10.64a3.55 3.55 0 0 0 3.54 3.54" class="cls-1"/><circle cx="128.4" cy="174.3" r="7.1" class="cls-3"/><path d="M128.36 156.55a3.55 3.55 0 0 0 3.55-3.55v-35.45a3.55 3.55 0 0 0-7.09 0V153a3.55 3.55 0 0 0 3.54 3.55" class="cls-1"/><circle cx="71.6" cy="163.6" r="7.1" class="cls-3"/><path d="M71.64 145.91a3.55 3.55 0 0 0 3.55-3.55v-24.81a3.55 3.55 0 0 0-7.09 0v24.82a3.55 3.55 0 0 0 3.54 3.54" class="cls-1"/><circle cx="22" cy="149.4" r="7.1" class="cls-3"/><path d="M43.27 114a3.55 3.55 0 0 0-3.55 3.55v46.69q-1-1.75-2.17-3.42a3.43 3.43 0 0 0-5-.72 3.37 3.37 0 0 0-.56 4.69c6.3 8 7.52 18.53 7.71 23.84a3.54 3.54 0 0 0 7.08-.17v-70.91a3.55 3.55 0 0 0-3.51-3.55" class="cls-1"/><circle cx="178" cy="128.2" r="7.1" class="cls-3"/><path d="M168.61 138.87a3.53 3.53 0 0 0-5 1.17q-1.85 3.26-3.39 6.66v-29.15a3.55 3.55 0 0 0-7.09 0v70.91a3.55 3.55 0 0 0 7.09 0v-7.17a72.33 72.33 0 0 1 9.45-37.6 3.56 3.56 0 0 0-1.06-4.82" class="cls-1"/></svg>