<svg xmlns="http://www.w3.org/2000/svg" data-name="Layer 1" viewBox="0 0 200 200"><g data-name="&lt;Group&gt;"><path d="m160.07 100 35.53-29.54-47.1-4 10.38-43.91-40.72 22.76L99.8 4.2 81 45.31 40.72 22.56 51.1 66.47 4 70.46 39.53 100 4 129.54l47.1 4-10.38 43.9 40.72-22.75L99.8 195.8l18.76-41.11 40.72 22.75-10.38-43.91 47.1-4ZM99.8 151.89A51.89 51.89 0 1 1 151.69 100a51.79 51.79 0 0 1-51.89 51.89" data-name="&lt;Compound Path&gt;" style="fill:#f83"/><path d="M99.8 56.09A43.91 43.91 0 1 0 143.71 100 43.78 43.78 0 0 0 99.8 56.09" data-name="&lt;Path&gt;" style="fill:#ffb92f"/></g></svg>