<svg xmlns="http://www.w3.org/2000/svg" viewBox="0 0 200 200"><defs><style>.cls-3{fill:#15aadc}.cls-4{fill:#ffb92f}</style></defs><path d="m117.54 92.61 2.05-4.93h65.31l-5.34 11.5-7 15.61h18.07A32 32 0 0 0 196 97.12a31.64 31.64 0 0 0-31.63-31.63h-.82a41.55 41.55 0 0 0-40.67-30.81 42.41 42.41 0 0 0-34.09 17.26 28.4 28.4 0 0 0-10.27-1.64 29.22 29.22 0 0 0-27.93 20.53C36.21 71.66 24.3 84 24.3 99.59c0 16 13.14 29.17 28.75 29.17h47.65Z" style="fill:#a3a3a3"/><path d="M26.35 74.12a60 60 0 0 1 7.8-6.57 29.18 29.18 0 0 1-3.29-28.34A29.9 29.9 0 0 1 58 21.13a29 29 0 0 1 11.5 2.46 29.49 29.49 0 0 1 16.84 18.9 50.5 50.5 0 0 1 18.06-12.32l-20.95-4.11-4.52-24.24-20.54 13.56-20.54-14-4.93 23.86L9.1 29.76 22.65 50.3l-14 20.13Z" style="fill:#f83"/><path d="M40.73 198.59c-.82 0-1.23 0-1.64-.41a3.63 3.63 0 0 1-1.64-5.34L58 151.76a4 4 0 1 1 7 3.7l-20.58 41.07a4.31 4.31 0 0 1-3.69 2.06m-32.86 0c-.82 0-1.23 0-1.64-.41a3.63 3.63 0 0 1-1.64-5.34l20.54-41.08a3.63 3.63 0 0 1 5.34-1.64 3.63 3.63 0 0 1 1.64 5.34l-20.55 41.07a4.31 4.31 0 0 1-3.69 2.06m0-32.87c-.82 0-1.23 0-1.64-.41A3.63 3.63 0 0 1 4.58 160L21 127.11a3.63 3.63 0 0 1 5.34-1.64 3.63 3.63 0 0 1 1.66 5.34l-16.44 32.86a4.31 4.31 0 0 1-3.69 2.05" class="cls-3"/><path d="M186.55 123h-26.7l12.33-27.11h-47.24l-22.6 49.3h26.7l-22.59 53.4z" class="cls-4"/><path d="M98.24 153.4h-8.63l-19.72 39.44c-.82 2.05 0 4.52 1.64 5.34a3.7 3.7 0 0 0 2.05.41 4 4 0 0 0 3.7-2.46L97.82 155c.42-.37.42-.78.42-1.6" class="cls-3"/><path d="m117.54 92.61 2.05-4.93h65.31l-5.34 11.5-7 15.61h7a24 24 0 0 0 8.22-17.66 23.4 23.4 0 0 0-23.41-23.41 23.9 23.9 0 0 0-7.8 1.23 33.52 33.52 0 0 0-33.68-32A33.05 33.05 0 0 0 92.07 63a21.22 21.22 0 0 0-13.14-4.52 20.34 20.34 0 0 0-20.54 20.57v.82a20.8 20.8 0 0 0-5.34-.82A20.69 20.69 0 0 0 32.51 100c0 11.5 9.45 20.95 20.54 20.95h51.35Z" style="fill:#e6e6e6"/><path d="M41.55 64.26a12 12 0 0 1 3.7-.82 37.54 37.54 0 0 1 31.63-21.36 20.23 20.23 0 0 0-11.1-10.68 18.4 18.4 0 0 0-8.22-1.64A20.94 20.94 0 0 0 37.85 42.9a22.68 22.68 0 0 0 0 16.43 51 51 0 0 1 3.7 4.93" class="cls-4"/><path d="M48.53 137 37 160c-.82 2.05 0 4.52 1.64 5.34a3.7 3.7 0 0 0 2.05.41 4 4 0 0 0 3.7-2.46L57.57 137Zm32.86 0-11.5 23c-.82 2.05 0 4.52 1.64 5.34a3.7 3.7 0 0 0 2.05.41 4 4 0 0 0 3.7-2.46L90.43 137Z" class="cls-3"/></svg>