<svg xmlns="http://www.w3.org/2000/svg" width="200" height="200"><path d="M114.8 13.2a46.8 46.8 0 0 0-38 19.6 30.6 30.6 0 0 0-12-2.4 31.79 31.79 0 0 0-30.4 23.2A32.06 32.06 0 0 0 4 85.6a31.41 31.41 0 0 0 31.6 31.6h126a34.4 34.4 0 0 0 0-68.8h-2a45.91 45.91 0 0 0-44.8-35.2" style="fill:#a3a3a3"/><path d="M35.6 62a31 31 0 0 1 6 .8V62a23.31 23.31 0 0 1 23.6-23.2A23.77 23.77 0 0 1 80 44a37.38 37.38 0 0 1 34.8-22.8 37.93 37.93 0 0 1 38 36.4 31.2 31.2 0 0 1 8.8-1.6 26.4 26.4 0 0 1 0 52.8h-126A23.06 23.06 0 0 1 12 85.6 23.64 23.64 0 0 1 35.6 62" style="fill:#e6e6e6"/><path d="M81.2 186.8a3.6 3.6 0 0 1-2-.4 4.82 4.82 0 0 1-2.4-6.4l24-52.4a4.83 4.83 0 0 1 8.8 4l-24 52.4a5.43 5.43 0 0 1-4.4 2.8m-50.4 0a3.6 3.6 0 0 1-2-.4 4.82 4.82 0 0 1-2.4-6.4l24-52.4a4.83 4.83 0 0 1 8.8 4l-24 52.4a4.92 4.92 0 0 1-4.4 2.8m100.4 0a3.6 3.6 0 0 1-2-.4 4.82 4.82 0 0 1-2.4-6.4l24-52.4a4.83 4.83 0 1 1 8.8 4l-24 52.4a4.92 4.92 0 0 1-4.4 2.8" style="fill:#15aadc"/></svg>