<svg xmlns="http://www.w3.org/2000/svg" viewBox="0 0 200 200"><defs><style>.cls-1{fill:#008fbf}</style></defs><circle cx="84.2" cy="144" r="8" class="cls-1"/><circle cx="68.2" cy="188" r="8" class="cls-1"/><circle cx="100.2" cy="192" r="4" class="cls-1"/><circle cx="32.2" cy="192" r="4" class="cls-1"/><circle cx="84.2" cy="168" r="4" class="cls-1"/><path d="m53 173.6-2-4a10.8 10.8 0 0 0 2.8-3.2 12 12 0 0 0 1.6-4h4.4a4 4 0 1 0 0-8h-4.4c-.4-2.8-2-5.2-4-7.6l2.4-4a4 4 0 0 0-6.8-4.4l-2.4 4a15 15 0 0 0-8.4-.4l-2-4c-.8-2-3.2-2.4-5.2-1.6-2 1.2-2.8 3.6-1.6 5.2l2 4a10.8 10.8 0 0 0-2.8 3.2 12 12 0 0 0-1.6 4h-4.4a3.78 3.78 0 0 0-4 4 4.2 4.2 0 0 0 2 3.6c.4.4 1.2.4 2 .8H25c.4 2.8 2 5.2 4 7.6l-2.4 4a4 4 0 0 0 6.8 4.4l2.4-4a15 15 0 0 0 8.4.4l2 4a5.5 5.5 0 0 0 1.2 1.6 3.63 3.63 0 0 0 4 0 5 5 0 0 0 1.6-5.6m-17.6-8.4a8.1 8.1 0 1 1 11.2-2.4 8.3 8.3 0 0 1-11.2 2.4M182.2 171.6l-8.4-4.8 6-1.6a3.54 3.54 0 0 0-2-6.8l-12.8 3.2-4.8-2.8a8.8 8.8 0 0 0 .4-3.2 6.8 6.8 0 0 0-.4-2.8l4.8-2.8 12.8 3.6h.8a3.84 3.84 0 0 0 3.6-2.8c.4-2-.4-4-2.4-4.4l-6-1.6 8.4-4.8a3.5 3.5 0 1 0-3.6-6l-8.4 4.8 1.6-6.4a3.69 3.69 0 1 0-7.2-1.6l-3.2 13.2-4.8 2.8a13.8 13.8 0 0 0-4.8-2.8v-5.2l9.6-9.2c1.6-1.2 1.6-3.6 0-5.2-1.2-1.6-3.6-1.6-5.2 0l-4.8 4.4v-10a3.6 3.6 0 0 0-7.2 0v10l-4-4.8a3.68 3.68 0 1 0-5.2 5.2l9.6 9.2v5.6a14.1 14.1 0 0 0-5.2 3.2l-4-2.4-3.2-13.2a3.69 3.69 0 0 0-7.2 1.6l1.6 6.4-8.4-4.8c-1.6-.8-4-.4-4.8 1.2s-.4 4 1.2 4.8l8.4 4.8-6 2a3.2 3.2 0 0 0-2.4 4.4 3.84 3.84 0 0 0 3.6 2.8h.8l12.8-3.6 4.4 2.8c0 .8-.4 1.2-.4 2a6.8 6.8 0 0 0 .4 2.8l-4.8 2.8-12.8-3.6c-2-.4-4 .4-4.4 2.4s.4 4 2.4 4.4l6 1.6-8.4 4.8a3.35 3.35 0 0 0-1.2 4.8 3.64 3.64 0 0 0 3.2 1.6c.8 0 1.2 0 1.6-.4l8.4-4.8-1.6 6.4a3.68 3.68 0 0 0 2.8 4.4h.8a3.84 3.84 0 0 0 3.6-2.8l3.2-13.2 4.8-2.8a13.8 13.8 0 0 0 4.8 2.8v5.2l-9.6 9.2c-1.6 1.2-1.6 3.6 0 5.2a3.46 3.46 0 0 0 2.4 1.2 2.85 2.85 0 0 0 2.4-1.2l4.8-4.4v10a3.6 3.6 0 0 0 7.2 0v-10l4.8 4.4a3.46 3.46 0 0 0 2.4 1.2 2.85 2.85 0 0 0 2.4-1.2 4.21 4.21 0 0 0 0-5.2l-9.6-9.2v-5.2a8.3 8.3 0 0 0 4-2.4l5.2 2.8 3.2 13.2a3.84 3.84 0 0 0 3.6 2.8h.8a3.68 3.68 0 0 0 2.8-4.4l-1.6-6.4 8.4 4.8a2.4 2.4 0 0 0 1.6.4 4.94 4.94 0 0 0 3.2-1.6 3 3 0 0 0-.8-4.8m-33.6-11.2a5.2 5.2 0 1 1 5.2-5.2c-.4 3.2-2.4 5.2-5.2 5.2" class="cls-1"/><path d="M127.4 120H52.2a20.15 20.15 0 0 1-20-20.4c0-11.2 9.2-20.4 20-20.4a23.4 23.4 0 0 1 5.2.8v-.8a20.06 20.06 0 0 1 20-20 20.67 20.67 0 0 1 12.8 4.4 33 33 0 0 1 30-19.6L153 75.2a23.3 23.3 0 0 1 7.6-1.2 22.86 22.86 0 0 1 7.6 44.4l8.4 4.8a30.75 30.75 0 0 0-16.4-56.8h-.8a40.46 40.46 0 0 0-39.6-30 41.3 41.3 0 0 0-33.2 16.8 27.6 27.6 0 0 0-10-1.6 28.45 28.45 0 0 0-27.2 20A28.15 28.15 0 0 0 23 100c0 15.6 12.8 28.4 28 28.4h60.4Z" style="fill:#a3a3a3"/><path d="m149 108 19.2 10.4a22.86 22.86 0 0 0-7.6-44.4 23.3 23.3 0 0 0-7.6 1.2A32.64 32.64 0 0 0 120.2 44a32.18 32.18 0 0 0-30 19.6 20.67 20.67 0 0 0-12.8-4.4 19.81 19.81 0 0 0-20 20v.8a20.3 20.3 0 0 0-5.2-.8 20.15 20.15 0 0 0-20 20.4c0 11.2 9.2 20.4 20 20.4h75.2Z" style="fill:#e6e6e6"/><path d="M25.8 74.8a58.5 58.5 0 0 1 7.6-6.4 28.41 28.41 0 0 1-3.2-27.6 29.11 29.11 0 0 1 26.4-17.6 28.2 28.2 0 0 1 11.2 2.4A28.72 28.72 0 0 1 84.2 44a49.2 49.2 0 0 1 17.6-12l-20.4-4L77 4.4 57 17.6 37.4 4l-4.8 23.2-23.2 4.4 13.2 20L9 71.2Z" style="fill:#f83"/><path d="M41 65.2a11.7 11.7 0 0 1 3.6-.8 36.65 36.65 0 0 1 31.2-20.8A19.67 19.67 0 0 0 65 33.2a17.9 17.9 0 0 0-8-1.6 20.39 20.39 0 0 0-19.2 12.8 22.08 22.08 0 0 0 0 16c.8 1.2 2 3.2 3.2 4.8" style="fill:#ffb92f"/></svg>