<svg xmlns="http://www.w3.org/2000/svg" width="200" height="200" viewBox="0 0 200 200"><defs><style>.cls-1{fill:#8a8a8a}</style></defs><path d="M100 56.09A43.91 43.91 0 1 0 143.91 100 44 44 0 0 0 100 56.09m0 78.06A34.15 34.15 0 1 1 134.15 100 34.25 34.25 0 0 1 100 134.15" class="cls-1"/><path d="M90.24 104.88H78a4.89 4.89 0 0 1-4.83-4.88A4.89 4.89 0 0 1 78 95.12h12.2a4.89 4.89 0 0 1 4.92 4.88 4.89 4.89 0 0 1-4.88 4.88m31.76 0h-12.2a4.89 4.89 0 0 1-4.88-4.88 4.89 4.89 0 0 1 4.88-4.88H122a4.89 4.89 0 0 1 4.88 4.88 4.89 4.89 0 0 1-4.88 4.88" class="cls-1"/></svg>