<svg xmlns="http://www.w3.org/2000/svg" viewBox="0 0 200 200"><defs><style>.cls-2{fill:#15aadc}</style></defs><path d="M184.07 63.83a46.32 46.32 0 0 1-46.51-46.51 44.8 44.8 0 0 1 2-12.72 46.39 46.39 0 0 0-33.79 35.78c13.91 3.62 25.83 13.51 31 26.62A36.78 36.78 0 0 1 167 93.24c13.91-5.17 25-16.7 29-31a41 41 0 0 1-11.93 1.59" style="fill:#8ed1e9"/><path d="M61.24 195.4a2.4 2.4 0 0 1-1.59-.4 4.06 4.06 0 0 1-2-5.57l21.47-46.91a4.18 4.18 0 1 1 7.55 3.58L65.22 193a4.37 4.37 0 0 1-3.98 2.4M90.26 178.31a3.6 3.6 0 0 1-2-.4 4.57 4.57 0 0 1-2-5.57L95 155.25a4.18 4.18 0 1 1 7.55 3.58l-8.75 17.09a3.48 3.48 0 0 1-3.54 2.39M45.34 178.31a3.6 3.6 0 0 1-2-.4 4.57 4.57 0 0 1-2-5.57l8.75-17.09a4.57 4.57 0 0 1 5.57-2 4.57 4.57 0 0 1 2 5.57l-8.75 17.09a3.48 3.48 0 0 1-3.57 2.4M16.32 195.4a2.4 2.4 0 0 1-1.59-.4 4.06 4.06 0 0 1-2-5.57l21.47-46.91a4.18 4.18 0 1 1 7.55 3.58L20.3 193a4.37 4.37 0 0 1-3.98 2.4M106.16 195.4a2.4 2.4 0 0 1-1.59-.4 4.06 4.06 0 0 1-2-5.57l21.43-46.9a4.18 4.18 0 0 1 7.55 3.58L110.14 193a4.37 4.37 0 0 1-3.98 2.4" class="cls-2"/><path d="M31 86.88a20 20 0 0 1 4.77.8v-.8A18.66 18.66 0 0 1 54.48 68.2a18.35 18.35 0 0 1 11.93 4.37 30.63 30.63 0 0 1 27.83-18.28 30 30 0 0 1 30.21 29 20.8 20.8 0 0 1 7.16-1.19 21.07 21.07 0 0 1 0 42.14H31a18.92 18.92 0 0 1-18.68-18.68A18.66 18.66 0 0 1 31 86.88" style="fill:#e6e6e6"/><path d="M93.84 54.29A30 30 0 0 1 124 83.3a20.8 20.8 0 0 1 7.16-1.19 21.07 21.07 0 0 1 0 42.14H30.63A18.92 18.92 0 0 1 12 105.57a18.66 18.66 0 0 1 18.63-18.69 20 20 0 0 1 4.77.8v-.8A18.66 18.66 0 0 1 54.09 68.2 18.35 18.35 0 0 1 66 72.57a30.63 30.63 0 0 1 27.84-18.28m0-8a39 39 0 0 0-31 15.5 20.2 20.2 0 0 0-8.75-1.59 26.61 26.61 0 0 0-25.44 18.73 26.67 26.67 0 0 0 2 53.27H131.2a29 29 0 0 0 0-58h-.4c-4.37-16.3-19.08-27.83-37-27.83Z" style="fill:#a3a3a3"/><path d="M184.07 63.83a46.32 46.32 0 0 1-46.51-46.51 44.8 44.8 0 0 1 2-12.72 46.39 46.39 0 0 0-33.79 35.78 42.4 42.4 0 0 1 7.55 2.78A39.86 39.86 0 0 1 130 17.71c0 29.42 23.85 53.27 52.87 54.06a40 40 0 0 1-19.07 14.32 43 43 0 0 1 3.2 7.55c13.91-5.17 25-16.7 29-31a60.7 60.7 0 0 1-11.93 1.19" style="fill:#008fbf"/></svg>