<svg xmlns="http://www.w3.org/2000/svg" viewBox="0 0 200 200"><defs><style>.cls-3{fill:#15aadc}</style></defs><path d="M136.65 66.94A36.35 36.35 0 0 1 164.93 88h12.35A44.22 44.22 0 0 0 196 62.16a54 54 0 0 1-11.55 1.59 46.41 46.41 0 0 1-46.61-46.61 44.9 44.9 0 0 1 2-12.75A46.49 46.49 0 0 0 106 40.25a46.62 46.62 0 0 1 30.65 26.69" style="fill:#8ed1e9"/><path d="M192.02 122.31h-26.29l12.34-26.29h-45.8l-21.91 47.8h25.89l-21.91 51.78z" style="fill:#ffb92f"/><path d="m19.14 137.84-10 20.32a4.2 4.2 0 0 0 1.59 5.18 3.6 3.6 0 0 0 2 .4 3.83 3.83 0 0 0 3.59-2.39l10.78-21.91c-2.78 0-5.17-.8-7.96-1.6M66.14 148.2a4.2 4.2 0 0 0-5.14 1.59l-20 39.84a4.2 4.2 0 0 0 1.59 5.18 2.19 2.19 0 0 0 2 .8 3.83 3.83 0 0 0 3.59-2.39l19.92-39.83c.83-1.61.03-4-1.96-5.19M34.27 148.2a4.2 4.2 0 0 0-5.18 1.59L9.18 189.63a4.2 4.2 0 0 0 1.59 5.18 2.19 2.19 0 0 0 2 .8 3.83 3.83 0 0 0 3.59-2.39l19.92-39.83c.78-1.61-.01-4-2.01-5.19M98 148.2a4.2 4.2 0 0 0-5.18 1.59l-19.91 39.84a4.2 4.2 0 0 0 1.59 5.18 2.19 2.19 0 0 0 2 .8 3.83 3.83 0 0 0 3.59-2.39L100 153.38c.8-1.6 0-3.99-2-5.18M50.21 139.83 41 158.16a4.2 4.2 0 0 0 1.59 5.18 3.6 3.6 0 0 0 2 .4 3.83 3.83 0 0 0 3.59-2.39L59 139.83ZM82.07 139.83l-9.16 18.32a4.2 4.2 0 0 0 1.59 5.18 3.6 3.6 0 0 0 2 .4 3.83 3.83 0 0 0 3.59-2.39l10.76-21.51Z" class="cls-3"/><path d="M113.15 43a39.94 39.94 0 0 1 16.73-25.49c0 29.48 23.9 53.38 53 54.17a40.1 40.1 0 0 1-19.12 14.34 8.7 8.7 0 0 0 1.2 2h12.35A44.22 44.22 0 0 0 196 62.16a54 54 0 0 1-11.55 1.59 46.41 46.41 0 0 1-46.61-46.61 44.9 44.9 0 0 1 2-12.75A46.49 46.49 0 0 0 106 40.25c2 .75 4.36 1.59 7.15 2.75" style="fill:#008fbf"/><path d="m125.1 92.83 2-4.78h19.12a21.46 21.46 0 0 0-14.74-6 22.6 22.6 0 0 0-7.17 1.2A30 30 0 0 0 94 54.19a30.69 30.69 0 0 0-27.86 18.32 18.4 18.4 0 0 0-12-4.38 18.7 18.7 0 0 0-18.67 18.72v.8a20 20 0 0 0-4.78-.8A19 19 0 0 0 12 105.58a18.7 18.7 0 0 0 18.69 18.72H110Z" style="fill:#e6e6e6"/><path d="M110.36 124.3H31.09a19 19 0 0 1-18.72-18.72 18.7 18.7 0 0 1 18.72-18.73 20 20 0 0 1 4.78.8v-.8a18.7 18.7 0 0 1 18.72-18.72 18.4 18.4 0 0 1 12 4.38 30.69 30.69 0 0 1 27.83-18.32 30 30 0 0 1 30.28 29.08 20.8 20.8 0 0 1 7.17-1.2 22.24 22.24 0 0 1 14.74 6H157a29.11 29.11 0 0 0-24.7-13.94h-.4c-4.38-16.33-19.52-27.88-37-27.88a39.05 39.05 0 0 0-31.15 15.51A27.23 27.23 0 0 0 28.7 78.89a26.73 26.73 0 0 0 2 53.38h75.68Z" style="fill:#a3a3a3"/></svg>